<svg xmlns="http://www.w3.org/2000/svg" width="180" height="240" viewBox="0 0 180 240">
  <defs>
    <linearGradient id="bunFur" x1="0" y1="0" x2="1" y2="0">
      <stop offset="0%" stop-color="#ffffff"/>
      <stop offset="55%" stop-color="#f4f1f2"/>
      <stop offset="100%" stop-color="#dccfd3"/>
    </linearGradient>
    <radialGradient id="bunPink" cx="50%" cy="42%" r="62%">
      <stop offset="0%" stop-color="#ffd7e2"/>
      <stop offset="65%" stop-color="#ffb6cb"/>
      <stop offset="100%" stop-color="#f192ad"/>
    </radialGradient>
    <filter id="bunShadow" x="-40%" y="-20%" width="180%" height="140%">
      <feDropShadow dx="0" dy="4" stdDeviation="4" flood-color="#000" flood-opacity="0.25"/>
    </filter>
  </defs>
  <g filter="url(#bunShadow)">
    <ellipse cx="62" cy="108" rx="27" ry="102" fill="url(#bunFur)" transform="rotate(-8 62 108)"/>
    <ellipse cx="118" cy="108" rx="27" ry="102" fill="url(#bunFur)" transform="rotate(8 118 108)"/>
  </g>
  <ellipse cx="62" cy="116" rx="13" ry="80" fill="url(#bunPink)" transform="rotate(-8 62 116)"/>
  <ellipse cx="118" cy="116" rx="13" ry="80" fill="url(#bunPink)" transform="rotate(8 118 116)"/>
  <path d="M50 40 C44 90 44 150 52 196" stroke="#ffffff" stroke-width="6" stroke-linecap="round" fill="none" opacity="0.6" transform="rotate(-8 62 116)"/>
  <path d="M106 40 C100 90 100 150 108 196" stroke="#ffffff" stroke-width="6" stroke-linecap="round" fill="none" opacity="0.6" transform="rotate(8 118 116)"/>
</svg>
